<svg width="182" height="182" viewBox="0 0 182 182" fill="none" xmlns="http://www.w3.org/2000/svg">
<mask id="mask0_567_15254" style="mask-type:luminance" maskUnits="userSpaceOnUse" x="0" y="0" width="182" height="182">
<path d="M90.763 181.526C140.89 181.526 181.526 140.89 181.526 90.763C181.526 40.636 140.89 0 90.763 0C40.636 0 0 40.636 0 90.763C0 140.89 40.636 181.526 90.763 181.526Z" fill="white"/>
</mask>
<g mask="url(#mask0_567_15254)">
<g opacity="0.6">
<path d="M11.1426 21.2033C8.54015 24.1743 6.10316 27.2882 3.84668 30.5526L20.695 42.2186C22.5228 39.5936 24.4859 37.0738 26.5769 34.6744L11.1426 21.2033ZM43.6961 -3.94893L52.8198 14.4188C64.2375 8.71743 77.1296 5.52075 90.7662 5.52075V-14.9756C73.8501 -14.9756 57.8668 -11.0192 43.6961 -3.94893ZM17.1072 14.9077L31.3757 29.6049C36.009 25.1145 41.1538 21.1205 46.7273 17.7734L36.1294 0.202988C29.2396 4.36243 22.8462 9.30412 17.1072 14.9002V14.9077Z" fill="#065BFF"/>
<path d="M-9.28604 124.941C-8.01489 128.679 -6.53314 132.35 -4.84078 135.938L13.6849 127.175C12.3235 124.287 11.1276 121.316 10.0896 118.307L-9.29356 124.941H-9.28604ZM-14.7918 84.1742L5.6744 85.4604C6.44913 72.7188 10.1272 59.9547 16.9417 48.1533L-0.809208 37.9014C-9.26348 52.5459 -13.8366 68.3713 -14.7918 84.1742ZM-11.7531 116.63L8.1114 111.62C6.53939 105.363 5.65184 98.909 5.54654 92.4103L-14.9648 92.8015C-14.8069 100.85 -13.7238 108.86 -11.7456 116.622L-11.7531 116.63Z" fill="#065BFF"/>
<path d="M70.3372 194.492C74.2108 195.259 78.1295 195.816 82.0784 196.139L83.7557 175.71C80.5741 175.44 77.3999 174.996 74.2785 174.387L70.3296 194.492H70.3372ZM32.2779 178.877L43.6205 161.795C32.9774 154.755 23.7559 145.188 16.9414 133.379L-0.80957 143.631C7.6447 158.275 19.07 170.144 32.2779 178.877ZM61.9055 192.476L67.5015 172.769C61.2962 171.002 55.2639 168.542 49.5776 165.383L39.6641 183.345C46.7118 187.226 54.1883 190.295 61.9055 192.469V192.476Z" fill="#065BFF"/>
<path d="M170.384 160.314C172.987 157.343 175.424 154.229 177.68 150.965L160.832 139.299C159.004 141.924 157.041 144.444 154.95 146.843L170.384 160.314ZM137.831 185.466L128.707 167.099C117.289 172.8 104.397 175.997 90.7607 175.997V196.493C107.669 196.493 123.66 192.537 137.831 185.466ZM164.42 166.61L150.151 151.913C145.518 156.403 140.373 160.397 134.8 163.744L145.398 181.314C152.287 177.155 158.681 172.213 164.42 166.617V166.61Z" fill="#065BFF"/>
<path d="M190.812 56.5845C189.541 52.8462 188.059 49.1757 186.367 45.5879L167.841 54.3505C169.202 57.2388 170.398 60.2099 171.436 63.2185L190.819 56.5845H190.812ZM196.318 97.3515L175.851 96.0653C175.077 108.807 171.399 121.571 164.584 133.372L182.335 143.624C190.789 128.98 195.362 113.154 196.318 97.3515ZM193.279 64.8958L173.414 69.9052C174.986 76.1632 175.874 82.6167 175.979 89.1153L196.491 88.7242C196.333 80.6761 195.25 72.6656 193.271 64.9033L193.279 64.8958Z" fill="#065BFF"/>
<path d="M111.187 -12.968C107.313 -13.7352 103.395 -14.2918 99.4459 -14.6152L97.7686 5.81341C100.95 6.08418 104.124 6.52796 107.246 7.13721L111.195 -12.968H111.187ZM149.246 2.64682L137.904 19.7284C148.547 26.7686 157.768 36.336 164.583 48.1449L182.334 37.893C173.88 23.2485 162.454 11.3794 149.246 2.64682ZM119.619 -10.9522L114.023 8.75435C120.228 10.5219 126.26 12.9815 131.947 16.1406L141.86 -1.82101C134.812 -5.70215 127.336 -8.77096 119.619 -10.9447V-10.9522Z" fill="#065BFF"/>
</g>
</g>
<g clip-path="url(#clip0_567_15254)">
<path d="M97.4625 43.9213V137.506C97.4625 137.792 97.2037 138.006 96.9236 137.953L55.1772 130.017C54.9628 129.976 54.8076 129.789 54.8076 129.571V51.8569C54.8076 51.6393 54.9628 51.4517 55.1772 51.4111L96.9236 43.4749C97.2037 43.4218 97.4625 43.6362 97.4625 43.9211V43.9213Z" fill="url(#paint0_linear_567_15254)" style="mix-blend-mode:screen"/>
<path d="M118.346 98.6942V93.4002H99.0479V87.9722H118.346V82.7637L126.991 90.729L118.346 98.6942Z" fill="url(#paint1_linear_567_15254)" style="mix-blend-mode:screen"/>
<path d="M114.408 51.4814H102.035V55.6977H110.191C110.442 55.6977 110.645 55.9012 110.645 56.1517V83.4806H114.862V51.9355C114.862 51.6849 114.658 51.4814 114.408 51.4814Z" fill="url(#paint2_linear_567_15254)" style="mix-blend-mode:screen"/>
<path d="M114.862 129.523V97.9785H110.645V125.307C110.645 125.558 110.442 125.761 110.191 125.761H102.035V129.978H114.408C114.658 129.978 114.862 129.774 114.862 129.524V129.523Z" fill="url(#paint3_linear_567_15254)" style="mix-blend-mode:screen"/>
</g>
<defs>
<linearGradient id="paint0_linear_567_15254" x1="76.1333" y1="141.176" x2="76.1333" y2="26.8277" gradientUnits="userSpaceOnUse">
<stop stop-color="#00A3FF"/>
<stop offset="0.96875" stop-color="#0066FF"/>
</linearGradient>
<linearGradient id="paint1_linear_567_15254" x1="113.018" y1="99.2362" x2="113.018" y2="79.9585" gradientUnits="userSpaceOnUse">
<stop stop-color="#00A3FF"/>
<stop offset="0.96875" stop-color="#0066FF"/>
</linearGradient>
<linearGradient id="paint2_linear_567_15254" x1="108.448" y1="84.5693" x2="108.448" y2="45.8468" gradientUnits="userSpaceOnUse">
<stop stop-color="#00A3FF"/>
<stop offset="0.96875" stop-color="#0066FF"/>
</linearGradient>
<linearGradient id="paint3_linear_567_15254" x1="108.448" y1="131.066" x2="108.448" y2="92.3439" gradientUnits="userSpaceOnUse">
<stop stop-color="#00A3FF"/>
<stop offset="0.96875" stop-color="#0066FF"/>
</linearGradient>
<clipPath id="clip0_567_15254">
<rect width="72.1829" height="94.494" fill="white" transform="translate(54.8076 43.4668)"/>
</clipPath>
</defs>
</svg>
