<svg width="577" height="65" viewBox="0 0 577 65" fill="none" xmlns="http://www.w3.org/2000/svg">
<g clip-path="url(#clip0_567_15111)">
<path d="M23.8615 44.7933C18.6913 44.7933 14.2723 42.9187 11.0848 39.3794C8.10723 36.0702 6.46278 31.5361 6.46278 26.6095C6.46278 15.6194 13.7782 7.64073 23.8615 7.64073C28.2467 7.64073 32.5304 9.65062 35.0817 12.8989L40.1437 9.04157C36.7262 4.60898 30.7236 1.96973 24.0578 1.96973C9.8938 1.96296 0 12.1004 0 26.6095C0 38.0801 9.07496 50.4643 23.7262 50.4643C34.5539 50.4643 39.988 44.0083 41.1182 42.4788L35.9885 38.6147C33.0718 42.6548 28.8761 44.7933 23.848 44.7933H23.8615Z" fill="white"/>
<path d="M59.8974 42.6947H59.6132L59.5861 42.6202L50.3826 18.4609H43.8115L56.6626 49.5838L56.6491 49.6244L54.7475 54.5375C53.5835 57.5692 52.4669 59.7145 48.6163 59.7145C47.4997 59.7145 46.2816 59.4776 45.1718 59.0377L44.4815 64.1809C45.8823 64.729 47.5538 64.993 49.5976 64.993C56.101 64.993 58.0567 61.2709 60.1004 56.0263L74.7787 18.4609H68.6678L59.8906 42.6879L59.8974 42.6947Z" fill="white"/>
<path d="M96.9554 17.683C92.5025 17.683 88.3 19.7199 86.2428 22.8735L86.2089 22.9209H85.9044V0H80.2334V49.2863H85.9044V44.8334H86.2022L86.236 44.8808C88.4015 48.0344 92.604 50.0713 96.9486 50.0713C106.172 50.0713 112.622 43.4123 112.622 33.8771C112.622 24.342 106.179 17.683 96.9486 17.683H96.9554ZM96.2313 44.7928C90.0528 44.7928 85.9044 40.4008 85.9044 33.8771C85.9044 27.3535 90.0528 22.9615 96.2313 22.9615C102.41 22.9615 106.558 27.3467 106.558 33.8771C106.558 40.4076 102.41 44.7928 96.2313 44.7928Z" fill="white"/>
<path d="M134.351 17.6826C125.114 17.6826 118.421 24.4905 118.421 33.8768C118.421 43.263 124.945 50.071 134.29 50.071C140.178 50.071 144.624 48.034 147.886 43.8518L143.609 40.5832C141.024 43.73 138.31 45.1917 135.075 45.1917C129.871 45.1917 124.491 41.7675 124.491 36.0423V35.934H149.375V33.9512C149.375 26.453 145.443 17.6894 134.358 17.6894L134.351 17.6826ZM124.484 31.4338V31.3255C124.484 27.0012 128.484 22.1761 134.223 22.1761C139.961 22.1761 143.155 25.5936 143.304 31.3187V31.4338H124.484Z" fill="white"/>
<path d="M162.679 23.1844L162.652 23.2453H162.341V18.4676H156.67V49.2859H162.341V33.8091C162.341 27.1298 165.373 23.7461 171.355 23.7461C172.126 23.7461 173.02 23.8815 174.13 24.1725L174.38 18.0413C173.636 17.8044 172.776 17.6826 171.876 17.6826C168.012 17.6826 164.148 19.997 162.679 23.1844Z" fill="white"/>
<path d="M188.47 3.13965H182.406V49.2859H209.753V43.6149H188.47V3.13965Z" fill="white"/>
<path d="M229.777 17.6826C220.587 17.6826 213.387 24.7951 213.387 33.8768C213.387 42.9585 220.587 50.071 229.777 50.071C238.967 50.071 246.168 42.9585 246.168 33.8768C246.168 24.7951 238.967 17.6826 229.777 17.6826ZM229.777 44.7925C223.599 44.7925 219.45 40.4005 219.45 33.8768C219.45 27.3531 223.599 22.9611 229.777 22.9611C235.956 22.9611 240.104 27.3463 240.104 33.8768C240.104 40.4072 235.956 44.7925 229.777 44.7925Z" fill="white"/>
<path d="M279.009 22.9205H278.711L278.677 22.8731C276.512 19.7196 272.309 17.6826 267.965 17.6826C258.741 17.6826 252.298 24.3416 252.298 33.8768C252.265 38.2417 253.848 42.2479 256.745 45.1647C259.634 48.0746 263.62 49.6785 267.971 49.6785C272.607 49.6785 276.579 47.6415 278.616 44.2308L278.65 44.1766H279.022V48.8731C279.022 52.9268 277.554 59.7211 267.714 59.7211C263.404 59.7211 259.885 58.1376 256.65 54.7404L252.799 59.5384C256.866 63.2672 261.651 65.0064 267.843 65.0064C277.764 65.0064 284.693 58.4827 284.693 49.1371V18.4676H279.022V22.9205H279.009ZM268.682 44.4C262.409 44.4 258.355 40.2719 258.355 33.8768C258.355 27.4817 262.503 22.9611 268.682 22.9611C274.861 22.9611 279.009 27.3463 279.009 33.8768C279.009 40.4072 274.955 44.4 268.682 44.4Z" fill="white"/>
<path d="M299.941 18.4678H294.27V49.2861H299.941V18.4678Z" fill="white"/>
<path d="M297.105 11.4371C299.385 11.4371 301.314 9.5084 301.314 7.22782C301.314 4.94724 299.385 3.01855 297.105 3.01855C294.824 3.01855 292.896 4.94724 292.896 7.22782C292.896 9.5084 294.824 11.4371 297.105 11.4371Z" fill="white"/>
<path d="M320.946 50.0716C322.056 50.0716 324.756 49.828 326.136 49.0701V43.9608C324.891 44.651 323.247 44.7931 322.056 44.7931C317.495 44.7931 317.495 40.9425 317.495 37.5454V23.3543H325.94V18.4683H317.495V9.75879H311.824V18.4683H305.016V23.3543H311.824V39.6365C311.824 44.5225 311.824 50.0716 320.946 50.0716Z" fill="white"/>
<path d="M347.867 17.6826C338.629 17.6826 331.937 24.4905 331.937 33.8768C331.937 43.263 338.46 50.071 347.806 50.071C353.693 50.071 358.14 48.034 361.401 43.8518L357.124 40.5832C354.539 43.73 351.826 45.1917 348.591 45.1917C343.387 45.1917 338.007 41.7675 338.007 36.0423V35.934H362.89V33.9512C362.89 26.453 358.958 17.6894 347.874 17.6894L347.867 17.6826ZM338 31.4338V31.3255C338 27.0012 341.999 22.1761 347.738 22.1761C353.477 22.1761 356.671 25.5936 356.82 31.3187V31.4338H338Z" fill="white"/>
<path d="M384.87 44.7931C379.003 44.7931 374.739 40.3132 374.739 34.1414C374.739 28.6125 377.771 23.0295 384.545 23.0295C387.672 23.0295 389.986 24.0581 392.28 26.4537L396.571 22.5422C393.674 19.4496 389.506 17.751 384.809 17.751C375.315 17.751 368.683 24.4371 368.683 34.0128C368.683 43.5886 375.315 50.0784 384.809 50.0784C389.688 50.0784 393.6 48.5084 396.442 45.4157L392.409 41.3824C390.352 43.7442 388.017 44.7999 384.87 44.7999V44.7931Z" fill="white"/>
<path d="M421.725 40.7322L420.825 44.4543H420.791L419.966 40.7999L413.841 24.2471H410.708L420 48.7177H421.279L430.394 24.2471H427.538L421.725 40.7322Z" fill="white"/>
<path d="M441.925 24.2471H439.069V48.3455H441.925V24.2471Z" fill="white"/>
<path d="M456.455 37.22H465.855V34.6755H456.455V26.7916H466.715V24.2471H453.6V48.3455H466.884V45.7942H456.455V37.22Z" fill="white"/>
<path d="M474.902 26.7916H482.407V48.3455H485.27V26.7916H492.775V24.2471H474.902V26.7916Z" fill="white"/>
<path d="M516.108 39.9405L516.487 43.2497H516.318L514.525 39.9405L502.993 23.8682H501.478V48.3455H504.164V32.5777L503.819 29.0993H503.961L505.815 32.5777L517.279 48.7177H518.795V24.2471H516.108V39.9405Z" fill="white"/>
<path d="M536.283 23.8682L527.16 48.3455H530.016L532.412 41.6662H541.25L543.713 48.3455H546.745L537.589 23.8682H536.283ZM540.397 39.1894H533.339L535.978 31.928L536.837 28.2128H536.871L537.731 31.8604L540.404 39.1894H540.397Z" fill="white"/>
<path d="M567.059 36.5027L565.99 39.257H565.923L564.786 36.5703L557.247 24.2471H555.108V48.3455H557.795V32.131L557.315 28.5511H557.484L558.729 31.8197L565.368 42.7286H566.234L572.494 31.8535L573.806 28.5511H573.976L573.631 32.1648V48.3455H576.486V24.2471H574.253L567.059 36.5027Z" fill="white"/>
</g>
<defs>
<clipPath id="clip0_567_15111">
<rect width="576.487" height="65" fill="white"/>
</clipPath>
</defs>
</svg>
