<svg width="182" height="182" viewBox="0 0 182 182" fill="none" xmlns="http://www.w3.org/2000/svg">
<mask id="mask0_567_15274" style="mask-type:luminance" maskUnits="userSpaceOnUse" x="0" y="0" width="182" height="182">
<path d="M91.1068 181.526C141.234 181.526 181.87 140.89 181.87 90.763C181.87 40.636 141.234 0 91.1068 0C40.9797 0 0.34375 40.636 0.34375 90.763C0.34375 140.89 40.9797 181.526 91.1068 181.526Z" fill="white"/>
</mask>
<g mask="url(#mask0_567_15274)">
<g opacity="0.6">
<path d="M11.4844 21.2033C8.88195 24.1743 6.44495 27.2882 4.18848 30.5526L21.0368 42.2186C22.8646 39.5936 24.8277 37.0738 26.9187 34.6744L11.4844 21.2033ZM44.0379 -3.94893L53.1616 14.4188C64.5793 8.71743 77.4714 5.52075 91.108 5.52075V-14.9756C74.1919 -14.9756 58.2086 -11.0192 44.0379 -3.94893ZM17.449 14.9077L31.7175 29.6049C36.3508 25.1145 41.4956 21.1205 47.0691 17.7734L36.4712 0.202988C29.5814 4.36243 23.188 9.30412 17.449 14.9002V14.9077Z" fill="#065BFF"/>
<path d="M-8.94327 124.941C-7.67212 128.679 -6.19037 132.35 -4.49801 135.938L14.0277 127.175C12.6663 124.287 11.4703 121.316 10.4324 118.307L-8.95079 124.941H-8.94327ZM-14.4491 84.1742L6.01718 85.4604C6.7919 72.7188 10.47 59.9547 17.2845 48.1533L-0.466434 37.9014C-8.9207 52.5459 -13.4938 68.3713 -14.4491 84.1742ZM-11.4104 116.63L8.45417 111.62C6.88216 105.363 5.99461 98.909 5.88931 92.4103L-14.6221 92.8015C-14.4641 100.85 -13.381 108.86 -11.4028 116.622L-11.4104 116.63Z" fill="#065BFF"/>
<path d="M70.6799 194.494C74.5536 195.261 78.4723 195.818 82.4212 196.141L84.0985 175.712C80.9168 175.442 77.7427 174.998 74.6213 174.389L70.6724 194.494H70.6799ZM32.6207 178.879L43.9632 161.797C33.3202 154.757 24.0987 145.19 17.2842 133.381L-0.466797 143.633C7.98747 158.277 19.4128 170.146 32.6207 178.879ZM62.2482 192.478L67.8443 172.771C61.639 171.004 55.6067 168.544 49.9203 165.385L40.0069 183.347C47.0546 187.228 54.5311 190.297 62.2482 192.47V192.478Z" fill="#065BFF"/>
<path d="M170.727 160.314C173.33 157.343 175.767 154.229 178.023 150.965L161.175 139.299C159.347 141.924 157.384 144.444 155.293 146.843L170.727 160.314ZM138.174 185.466L129.05 167.099C117.632 172.8 104.74 175.997 91.1035 175.997V196.493C108.012 196.493 124.003 192.537 138.174 185.466ZM164.762 166.61L150.494 151.913C145.861 156.403 140.716 160.397 135.142 163.744L145.74 181.314C152.63 177.155 159.023 172.213 164.762 166.617V166.61Z" fill="#065BFF"/>
<path d="M191.154 56.5854C189.882 52.8472 188.401 49.1767 186.708 45.5889L168.183 54.3515C169.544 57.2398 170.74 60.2108 171.778 63.2195L191.161 56.5854H191.154ZM196.659 97.3525L176.193 96.0663C175.418 108.808 171.74 121.572 164.926 133.373L182.677 143.625C191.131 128.981 195.704 113.155 196.659 97.3525ZM193.621 64.8968L173.756 69.9062C175.328 76.1641 176.216 82.6177 176.321 89.1163L196.832 88.7252C196.674 80.6771 195.591 72.6666 193.613 64.9043L193.621 64.8968Z" fill="#065BFF"/>
<path d="M111.53 -12.967C107.656 -13.7342 103.737 -14.2908 99.7886 -14.6143L98.1113 5.81438C101.293 6.08516 104.467 6.52894 107.589 7.13819L111.537 -12.967H111.53ZM149.589 2.64779L138.247 19.7293C148.89 26.7695 158.111 36.337 164.926 48.1459L182.677 37.894C174.222 23.2494 162.797 11.3804 149.589 2.64779ZM119.962 -10.9512L114.365 8.75533C120.571 10.5229 126.603 12.9825 132.289 16.1415L142.203 -1.82003C135.155 -5.70117 127.679 -8.76998 119.962 -10.9437V-10.9512Z" fill="#065BFF"/>
</g>
</g>
<path d="M88.9284 47.1963C69.5591 47.1963 52.0532 58.3662 54.169 84.5084C54.1389 85.1413 54.0754 85.7546 54.0754 86.4059C54.0754 87.2456 54.2836 88.2973 54.3477 89.2224C51.8243 91.1098 49.7188 93.6692 49.7188 97.2975C49.7188 102.409 53.5306 106.038 58.2703 107.219C60.8649 113.965 64.5097 120.312 69.3321 125.19C74.6406 130.56 81.3769 134.329 88.9284 134.329C91.0756 134.329 94.1682 133.98 97.0971 133.648C100.026 133.316 102.56 132.984 102.56 132.984L101.437 124.348C101.437 124.348 98.9622 124.664 96.1185 124.986C93.2749 125.308 89.8308 125.616 88.9284 125.616C84.2813 125.616 79.6938 123.279 75.5267 119.064C71.3596 114.849 67.8116 108.839 65.6051 102.42L64.5925 99.4758H60.6103C59.6664 99.4758 58.432 98.2414 58.432 97.2975C58.432 96.3224 59.0081 95.744 60.2444 95.3319L64.0735 94.0555L63.095 90.1414C62.7836 88.896 62.7886 88.1486 62.7886 86.4059C62.7886 84.4798 62.9422 82.7598 63.2056 81.1814C68.1927 77.3436 72.2067 80.5673 78.4708 70.7238C85.0323 82.6539 103.228 75.1981 114.056 78.5266C114.708 80.7504 115.068 83.3342 115.068 86.4059V108.189H118.14C117.907 109.341 117.667 110.296 117.434 111.065C117.181 111.9 117.037 112.094 116.838 112.546H97.2672C96.8168 111.272 95.9825 110.169 94.8793 109.388C93.776 108.608 92.458 108.189 91.1067 108.189C89.3735 108.189 87.7113 108.878 86.4858 110.103C85.2603 111.329 84.5718 112.991 84.5718 114.724C84.5718 116.457 85.2603 118.119 86.4858 119.345C87.7113 120.57 89.3735 121.259 91.1067 121.259C91.5007 121.258 91.8937 121.22 92.2809 121.148C92.6102 121.224 92.9472 121.261 93.285 121.259H119.425C120.502 121.261 121.542 120.864 122.343 120.144C122.343 120.144 123.248 119.208 123.858 118.17C124.468 117.133 125.143 115.67 125.773 113.592C126.253 112.008 126.683 109.926 127.066 107.534C130.242 106.23 132.495 103.108 132.495 99.4758V90.7625C132.495 85.9703 128.574 82.0493 123.781 82.0493H123.756C124.41 57.638 107.69 47.1963 88.9284 47.1963ZM78.0368 86.4059C76.3036 86.4059 74.6415 87.0944 73.4159 88.32C72.1904 89.5455 71.5019 91.2077 71.5019 92.9409C71.5019 94.674 72.1904 96.3362 73.4159 97.5618C74.6415 98.7873 76.3036 99.4758 78.0368 99.4758C79.77 99.4758 81.4322 98.7873 82.6577 97.5618C83.8833 96.3362 84.5718 94.674 84.5718 92.9409C84.5718 91.2077 83.8833 89.5455 82.6577 88.32C81.4322 87.0944 79.77 86.4059 78.0368 86.4059ZM99.82 86.4059C98.0868 86.4059 96.4246 87.0944 95.1991 88.32C93.9735 89.5455 93.285 91.2077 93.285 92.9409C93.285 94.674 93.9735 96.3362 95.1991 97.5618C96.4246 98.7873 98.0868 99.4758 99.82 99.4758C101.553 99.4758 103.215 98.7873 104.441 97.5618C105.666 96.3362 106.355 94.674 106.355 92.9409C106.355 91.2077 105.666 89.5455 104.441 88.32C103.215 87.0944 101.553 86.4059 99.82 86.4059Z" fill="url(#paint0_linear_567_15274)"/>
<defs>
<linearGradient id="paint0_linear_567_15274" x1="91.1067" y1="47.1963" x2="91.1067" y2="134.329" gradientUnits="userSpaceOnUse">
<stop stop-color="#017DFF"/>
<stop offset="1" stop-color="#019AFF"/>
</linearGradient>
</defs>
</svg>
